<svg width="42" height="42" viewBox="0 0 42 42" fill="none" xmlns="http://www.w3.org/2000/svg">
<path fill-rule="evenodd" clip-rule="evenodd" d="M21 0.999268C9.96162 0.999268 1 9.96089 1 20.9985C1 32.0369 9.96162 40.9985 21 40.9985C32.0384 40.9985 41 32.0369 41 20.9985C41 9.96089 32.0384 0.999268 21 0.999268ZM21 2.73289C31.0814 2.73289 39.2665 10.9181 39.2665 20.9987C39.2665 31.08 31.0814 39.2652 21 39.2652C10.9186 39.2652 2.73348 31.08 2.73348 20.9987C2.73348 10.9181 10.9186 2.73289 21 2.73289Z" fill="#BC8AFC" stroke="#BC8AFC" stroke-width="1.2"/>
<path fill-rule="evenodd" clip-rule="evenodd" d="M11.1928 21.6113L17.3224 27.741C17.6606 28.0794 18.21 28.0794 18.5481 27.741L30.8073 15.4818C31.1457 15.1434 31.1457 14.5942 30.8073 14.2558C30.4692 13.9177 29.9198 13.9177 29.5816 14.2558L17.9354 25.902L12.4188 20.3853C12.0803 20.0472 11.5312 20.0472 11.1928 20.3853C10.8544 20.7237 10.8544 21.2729 11.1928 21.6113Z" fill="#BC8AFC" stroke="#BC8AFC" stroke-width="1.2"/>
</svg>
