<svg width="96" height="96" viewBox="0 0 96 96" fill="none" xmlns="http://www.w3.org/2000/svg">
<g filter="url(#filter0_d_301_72)">
<circle cx="48" cy="46" r="40" fill="#190422"/>
</g>
<path d="M65.9244 33H30.0756C29.5253 33.0012 28.9983 33.2201 28.6092 33.6092C28.2201 33.9983 28.0012 34.5253 28 35.0756V56.1154C28.0012 56.6657 28.2201 57.1927 28.6092 57.5818C28.9983 57.9709 29.5253 58.1898 30.0756 58.191H65.9244C66.4747 58.1898 67.0017 57.9709 67.3908 57.5818C67.7799 57.1927 67.9988 56.6657 68 56.1154V35.0756C67.9988 34.5253 67.7799 33.9983 67.3908 33.6092C67.0018 33.2201 66.4747 33.0012 65.9244 33ZM28.8891 39.7334H67.1109V45.151H28.8891V39.7334ZM30.0758 33.8888H65.9246C66.239 33.8901 66.54 34.0153 66.7626 34.2376C66.9849 34.4599 67.1102 34.7612 67.1114 35.0756V38.8445H28.8896V35.0756C28.8909 34.7612 29.0161 34.4599 29.2384 34.2376C29.461 34.0153 29.762 33.89 30.0764 33.8888H30.0758ZM65.9246 57.3024H30.0758C29.7615 57.3011 29.4605 57.1759 29.2378 56.9536C29.0155 56.7313 28.8903 56.43 28.8891 56.1156V46.0402H67.1109V56.1156C67.1096 56.4299 66.9844 56.7313 66.7621 56.9536C66.5395 57.1759 66.2385 57.3011 65.9241 57.3024H65.9246Z" fill="#D9BBFF" stroke="#D9BBFF" stroke-width="1.5"/>
<path d="M61.4839 48.6706H56.302C55.9864 48.6715 55.6841 48.7974 55.4609 49.0206C55.2376 49.2438 55.1118 49.5461 55.1108 49.8617V53.1505C55.1108 53.4664 55.2361 53.7693 55.4596 53.9928C55.6828 54.216 55.986 54.3415 56.3019 54.3415H61.4838C61.7982 54.3394 62.0989 54.2129 62.3206 53.9897C62.5419 53.7665 62.6662 53.4648 62.6662 53.1505V49.8617C62.665 49.5477 62.5404 49.2466 62.3193 49.0237C62.098 48.8008 61.7979 48.674 61.4839 48.6706ZM61.7775 53.1504C61.775 53.3162 61.6411 53.4502 61.4752 53.4526H56.3019C56.2216 53.4526 56.1447 53.4207 56.088 53.3643C56.0316 53.3076 55.9997 53.2307 55.9997 53.1504V49.8616C55.9997 49.6945 56.1348 49.5594 56.3019 49.5594H61.4838C61.65 49.5615 61.7839 49.6955 61.7861 49.8616L61.7775 53.1504Z" fill="#D9BBFF" stroke="#D9BBFF" stroke-width="1.5"/>
<defs>
<filter id="filter0_d_301_72" x="0" y="0" width="96" height="96" filterUnits="userSpaceOnUse" color-interpolation-filters="sRGB">
<feFlood flood-opacity="0" result="BackgroundImageFix"/>
<feColorMatrix in="SourceAlpha" type="matrix" values="0 0 0 0 0 0 0 0 0 0 0 0 0 0 0 0 0 0 127 0" result="hardAlpha"/>
<feOffset dy="2"/>
<feGaussianBlur stdDeviation="4"/>
<feComposite in2="hardAlpha" operator="out"/>
<feColorMatrix type="matrix" values="0 0 0 0 0.370833 0 0 0 0 0.128247 0 0 0 0 0.300177 0 0 0 0.2 0"/>
<feBlend mode="normal" in2="BackgroundImageFix" result="effect1_dropShadow_301_72"/>
<feBlend mode="normal" in="SourceGraphic" in2="effect1_dropShadow_301_72" result="shape"/>
</filter>
</defs>
</svg>
