<svg width="96" height="96" viewBox="0 0 96 96" fill="none" xmlns="http://www.w3.org/2000/svg">
<g filter="url(#filter0_d_301_65)">
<circle cx="48" cy="46" r="40" fill="#190422"/>
</g>
<path d="M47.4292 21.3311C47.149 21.3311 46.9219 21.5582 46.9221 21.8381L46.9222 25.8955C46.9222 26.1757 47.1493 26.4028 47.4292 26.4026C47.7094 26.4026 47.9365 26.1754 47.9362 25.8955L47.9362 21.8381C47.9362 21.558 47.7091 21.3308 47.4292 21.3311ZM33.0867 27.2741C32.9566 27.2741 32.8213 27.3179 32.722 27.4167C32.5238 27.6148 32.5238 27.9475 32.722 28.1456L35.5907 31.0143C35.7888 31.2125 36.1217 31.2122 36.3196 31.0143C36.5174 30.8165 36.5174 30.4833 36.3196 30.2854L33.4509 27.4167C33.3518 27.3177 33.2162 27.2741 33.0864 27.2739L33.0867 27.2741ZM61.7728 27.2743C61.6432 27.2743 61.5074 27.3181 61.4081 27.4169L58.5394 30.2856C58.3413 30.4837 58.3416 30.8166 58.5394 31.0145C58.7375 31.2126 59.0702 31.2126 59.2683 31.0145L62.137 28.1458C62.3351 27.9477 62.3351 27.615 62.137 27.4169C62.0379 27.3179 61.9023 27.2743 61.7723 27.2743L61.7728 27.2743ZM47.4298 29.4452C40.9825 29.4451 34.7512 34.4523 34.7513 41.5373C34.7513 46.067 36.4816 48.8699 38.1431 51.2208C39.8043 53.5714 41.3444 55.4507 41.3445 58.3525L41.3448 64.4383C41.3448 65.8817 42.5377 66.974 43.8805 66.9741L50.9807 66.9741C52.3235 66.9741 53.5165 65.8818 53.5165 64.4384L53.5164 58.3528C53.5164 55.4512 55.0565 53.5718 56.7177 51.2211C58.3791 48.8703 60.1094 46.0674 60.1094 41.5378C60.1093 34.4527 53.878 29.4455 47.4307 29.4454L47.4298 29.4452ZM47.4298 30.4593C53.3522 30.4593 59.0943 35.0488 59.0941 41.5373C59.0942 45.8138 57.528 48.3204 55.8929 50.634C54.344 52.8262 52.6875 54.8619 52.5172 57.8449L42.3428 57.8448C42.1725 54.8618 40.5163 52.8259 38.9671 50.6339C37.3318 48.3197 35.7657 45.8135 35.7656 41.5371C35.7656 35.0483 41.5075 30.4591 47.4298 30.4593ZM46.3522 33.0583C41.815 33.5876 38.3014 37.4495 38.3014 42.1232C38.3014 43.0567 38.4373 43.9535 38.6977 44.8017C38.7765 45.0591 39.0901 45.2292 39.3475 45.1504C39.6047 45.0714 39.759 44.758 39.6802 44.5006C39.4486 43.7461 39.3158 42.9539 39.3158 42.1234C39.3158 37.9576 42.4448 34.5273 46.4793 34.0564C46.7447 34.0357 46.9756 33.7833 46.9545 33.5176C46.886 33.1054 46.6731 33.0376 46.3524 33.0581L46.3522 33.0583ZM27.1442 41.6166C26.864 41.6166 26.6369 41.8437 26.6371 42.1236C26.6371 42.4038 26.8643 42.6309 27.1442 42.6307L31.2016 42.6307C31.4817 42.6307 31.7089 42.4036 31.7086 42.1237C31.7086 41.8435 31.4815 41.6164 31.2016 41.6166L27.1442 41.6166ZM63.6595 41.6168C63.3793 41.6168 63.1522 41.844 63.1524 42.1239C63.1524 42.404 63.3796 42.6312 63.6595 42.6309L67.7169 42.631C67.997 42.631 68.2242 42.4038 68.2239 42.1239C68.2239 41.8438 67.9968 41.6166 67.7166 41.6166L63.6592 41.6166L63.6595 41.6168ZM42.3589 58.86L52.5018 58.8601L52.5018 61.9028L42.3589 61.9028L42.3589 58.86ZM42.3589 62.9174L52.5018 62.9175L52.5018 64.4388C52.5018 65.3264 51.7779 65.9602 50.9804 65.9602L43.8802 65.9602C43.0827 65.9602 42.3588 65.3263 42.3588 64.4388L42.3589 62.9174Z" fill="#D9BBFF" stroke="#D9BBFF" stroke-width="1.4"/>
<defs>
<filter id="filter0_d_301_65" x="0" y="0" width="96" height="96" filterUnits="userSpaceOnUse" color-interpolation-filters="sRGB">
<feFlood flood-opacity="0" result="BackgroundImageFix"/>
<feColorMatrix in="SourceAlpha" type="matrix" values="0 0 0 0 0 0 0 0 0 0 0 0 0 0 0 0 0 0 127 0" result="hardAlpha"/>
<feOffset dy="2"/>
<feGaussianBlur stdDeviation="4"/>
<feComposite in2="hardAlpha" operator="out"/>
<feColorMatrix type="matrix" values="0 0 0 0 0.370833 0 0 0 0 0.128247 0 0 0 0 0.300177 0 0 0 0.2 0"/>
<feBlend mode="normal" in2="BackgroundImageFix" result="effect1_dropShadow_301_65"/>
<feBlend mode="normal" in="SourceGraphic" in2="effect1_dropShadow_301_65" result="shape"/>
</filter>
</defs>
</svg>
