<svg width="96" height="96" viewBox="0 0 96 96" fill="none" xmlns="http://www.w3.org/2000/svg">
<g filter="url(#filter0_d_301_90)">
<circle cx="48" cy="46" r="40" fill="#190422"/>
</g>
<path d="M31.7283 30.7296C31.4562 30.7639 31.2553 31.0005 31.266 31.2748V59.8118C31.266 60.1037 31.5027 60.3404 31.7946 60.3404H67.7296C67.8712 60.3422 68.0076 60.2877 68.1082 60.1882C68.2092 60.089 68.2656 59.9533 68.2656 59.8118C68.2656 59.6702 68.2092 59.535 68.1082 59.4354C68.0076 59.3363 67.8712 59.2813 67.7296 59.2835H32.3231V31.275C32.3294 31.1198 32.2667 30.9698 32.1521 30.8647C32.0378 30.7596 31.8826 30.7102 31.7285 30.7298L31.7283 30.7296ZM59.175 38.6731C58.883 38.7004 58.6688 38.9592 58.6961 39.2511C58.7234 39.5431 58.9822 39.7576 59.2741 39.73H64.2944L53.461 49.5726L45.8811 43.0166C45.678 42.8481 45.3823 42.8551 45.1873 43.0328L35.6751 51.4884C35.556 51.5761 35.479 51.7096 35.4632 51.8566C35.4469 52.0037 35.4934 52.1508 35.5907 52.2621C35.688 52.3731 35.8277 52.4387 35.9755 52.4424C36.1234 52.4461 36.266 52.3875 36.3685 52.2809L45.5339 44.1229L53.1138 50.6958C53.3195 50.8739 53.627 50.8665 53.8242 50.6792L65.0869 40.4403V45.5431C65.0851 45.6847 65.14 45.8211 65.2391 45.9217C65.3383 46.0223 65.474 46.0791 65.6155 46.0791C65.7571 46.0791 65.8927 46.0224 65.9919 45.9217C66.091 45.8211 66.146 45.6847 66.1441 45.5431V39.2017C66.1441 38.9097 65.9075 38.6731 65.6155 38.6731H59.2741C59.241 38.6701 59.2078 38.6702 59.175 38.6731Z" fill="#D9BBFF" stroke="#D9BBFF" stroke-width="2"/>
<defs>
<filter id="filter0_d_301_90" x="0" y="0" width="96" height="96" filterUnits="userSpaceOnUse" color-interpolation-filters="sRGB">
<feFlood flood-opacity="0" result="BackgroundImageFix"/>
<feColorMatrix in="SourceAlpha" type="matrix" values="0 0 0 0 0 0 0 0 0 0 0 0 0 0 0 0 0 0 127 0" result="hardAlpha"/>
<feOffset dy="2"/>
<feGaussianBlur stdDeviation="4"/>
<feComposite in2="hardAlpha" operator="out"/>
<feColorMatrix type="matrix" values="0 0 0 0 0.370833 0 0 0 0 0.128247 0 0 0 0 0.300177 0 0 0 0.2 0"/>
<feBlend mode="normal" in2="BackgroundImageFix" result="effect1_dropShadow_301_90"/>
<feBlend mode="normal" in="SourceGraphic" in2="effect1_dropShadow_301_90" result="shape"/>
</filter>
</defs>
</svg>
