<svg width="96" height="96" viewBox="0 0 96 96" fill="none" xmlns="http://www.w3.org/2000/svg">
<g filter="url(#filter0_d_301_81)">
<circle cx="48" cy="46" r="40" fill="#190422"/>
</g>
<path d="M40.8941 27.4037C37.0133 27.4037 33.5271 28.1274 30.962 29.377C28.4624 30.5609 26.7521 32.2712 26.6865 34.3101V34.3757V34.5074V40.1642V40.2298V46.2812V46.3469V51.938C26.6865 54.043 28.3968 55.8189 30.962 57.0685C33.5271 58.3181 37.0133 59.0418 40.8941 59.0418C42.3409 59.0418 43.7226 58.9101 45.0378 58.7128C47.4718 61.7387 51.2209 63.7119 55.3646 63.7119C62.6659 63.7119 68.5852 57.7922 68.5852 50.4249C68.5852 43.1234 62.6655 37.1378 55.3646 37.1378H55.0356V34.5066V34.3749V34.3093V34.2436C54.9039 32.2704 53.2597 30.5602 50.7601 29.3105C48.1954 28.1266 44.7749 27.4033 40.8941 27.4033L40.8941 27.4037ZM40.8941 28.456C44.5775 28.456 47.932 29.1797 50.2999 30.2975C52.6022 31.4158 53.9833 32.8627 54.049 34.3757V34.4413V34.507C54.049 35.5592 53.3914 36.6775 52.1415 37.5986C50.563 37.9932 49.0499 38.7169 47.8005 39.6374C45.7616 40.2294 43.4594 40.5584 40.9599 40.5584C37.2107 40.5584 33.8559 39.8348 31.488 38.7169C29.2519 37.6647 27.9362 36.283 27.8046 34.8361V34.5731V34.4414C27.8702 32.9946 29.1858 31.5472 31.5537 30.4289C33.8564 29.1798 37.2109 28.4561 40.8943 28.4561L40.8941 28.456ZM27.7398 37.2043C28.4634 38.1253 29.6473 38.9802 30.963 39.6383C33.5281 40.8879 37.0143 41.6116 40.8951 41.6116C42.671 41.6116 44.3813 41.4799 45.9598 41.1513C44.5785 42.5982 43.4602 44.3085 42.8682 46.2161C42.2106 46.2817 41.5526 46.2817 40.895 46.2817C37.1458 46.2817 33.857 45.558 31.4231 44.4402C29.0552 43.3219 27.7397 41.809 27.7397 40.2964V40.2307L27.7398 37.2043ZM55.4312 38.191C62.2062 38.191 67.6003 43.6505 67.6003 50.4254C67.6003 57.2004 62.1409 62.6599 55.4312 62.6599C48.7223 62.6599 43.2621 57.2004 43.2621 50.4254C43.2621 43.7164 48.6558 38.191 55.4312 38.191ZM27.7398 42.9929C28.4634 43.9138 29.6473 44.7688 30.963 45.4268C33.5281 46.6764 37.0143 47.4001 40.8951 47.4001C41.4871 47.4001 42.0134 47.4001 42.5393 47.3345C42.2764 48.3211 42.1447 49.4394 42.1447 50.4917C42.1447 51.1493 42.2103 51.8073 42.2764 52.465C41.8161 52.5306 41.3554 52.5306 40.8295 52.5306C37.0804 52.5306 33.7916 51.8069 31.3576 50.6891C28.9897 49.5707 27.6742 48.0578 27.6742 46.4792V46.4136L27.6738 42.9929L27.7398 42.9929ZM27.7398 49.1098C28.4634 50.0308 29.6473 50.8858 30.963 51.5438C33.5281 52.7934 37.0143 53.5171 40.8951 53.5171C41.4214 53.5171 41.9473 53.5171 42.5393 53.4515C42.934 55.03 43.5259 56.4775 44.4469 57.7926C43.3286 57.9243 42.2108 58.0555 40.9607 58.0555C37.2116 58.0555 33.8567 57.3319 31.4888 56.214C29.1209 55.0957 27.8054 53.5828 27.8054 52.0702L27.7398 49.1098Z" fill="#D9BBFF" stroke="#D9BBFF" stroke-width="1.5"/>
<defs>
<filter id="filter0_d_301_81" x="0" y="0" width="96" height="96" filterUnits="userSpaceOnUse" color-interpolation-filters="sRGB">
<feFlood flood-opacity="0" result="BackgroundImageFix"/>
<feColorMatrix in="SourceAlpha" type="matrix" values="0 0 0 0 0 0 0 0 0 0 0 0 0 0 0 0 0 0 127 0" result="hardAlpha"/>
<feOffset dy="2"/>
<feGaussianBlur stdDeviation="4"/>
<feComposite in2="hardAlpha" operator="out"/>
<feColorMatrix type="matrix" values="0 0 0 0 0.370833 0 0 0 0 0.128247 0 0 0 0 0.300177 0 0 0 0.2 0"/>
<feBlend mode="normal" in2="BackgroundImageFix" result="effect1_dropShadow_301_81"/>
<feBlend mode="normal" in="SourceGraphic" in2="effect1_dropShadow_301_81" result="shape"/>
</filter>
</defs>
</svg>
