<svg width="106" height="19" viewBox="0 0 106 19" fill="none" xmlns="http://www.w3.org/2000/svg">
<path d="M9.49967 13.9525L14.3922 16.75L13.0938 11.4775L17.4163 7.93L11.7243 7.4725L9.49967 2.5L7.27509 7.4725L1.58301 7.93L5.90551 11.4775L4.60717 16.75L9.49967 13.9525Z" fill="#BC8AFC"/>
<path d="M31.4997 13.9525L36.3922 16.75L35.0938 11.4775L39.4163 7.93L33.7243 7.4725L31.4997 2.5L29.2751 7.4725L23.583 7.93L27.9055 11.4775L26.6072 16.75L31.4997 13.9525Z" fill="#BC8AFC"/>
<path d="M53 13.9525L57.635 16.75L56.405 11.4775L60.5 7.93L55.1075 7.4725L53 2.5L50.8925 7.4725L45.5 7.93L49.595 11.4775L48.365 16.75L53 13.9525Z" fill="#BC8AFC"/>
<path d="M74.4997 13.9525L79.3922 16.75L78.0938 11.4775L82.4163 7.93L76.7243 7.4725L74.4997 2.5L72.2751 7.4725L66.583 7.93L70.9055 11.4775L69.6072 16.75L74.4997 13.9525Z" fill="#BC8AFC"/>
<path d="M96.4997 13.6708L101.392 16.6237L100.094 11.0583L104.416 7.3137L98.7243 6.83078L96.4997 1.58203L94.2751 6.83078L88.583 7.3137L92.9055 11.0583L91.6072 16.6237L96.4997 13.6708Z" fill="#BC8AFC"/>
</svg>
